<?xml version="1.0" encoding="UTF-8" standalone="no"?>
<!-- Created with Inkscape (http://www.inkscape.org/) -->

<svg
   xmlns:dc="http://purl.org/dc/elements/1.1/"
   xmlns:cc="http://creativecommons.org/ns#"
   xmlns:rdf="http://www.w3.org/1999/02/22-rdf-syntax-ns#"
   xmlns:svg="http://www.w3.org/2000/svg"
   xmlns="http://www.w3.org/2000/svg"
   xmlns:sodipodi="http://sodipodi.sourceforge.net/DTD/sodipodi-0.dtd"
   xmlns:inkscape="http://www.inkscape.org/namespaces/inkscape"
   version="1.1"
   id="svg3713"
   xml:space="preserve"
   width="1874.9567"
   height="1874.9598"
   viewBox="0 0 1874.9567 1874.9598"
   sodipodi:docname="sc-logo.svg"
   inkscape:version="0.92.3 (2405546, 2018-03-11)"><metadata
     id="metadata3719"><rdf:RDF><cc:Work
         rdf:about=""><dc:format>image/svg+xml</dc:format><dc:type
           rdf:resource="http://purl.org/dc/dcmitype/StillImage" /><dc:title></dc:title></cc:Work></rdf:RDF></metadata><defs
     id="defs3717"><clipPath
       clipPathUnits="userSpaceOnUse"
       id="clipPath3729"><path
         d="M 0,2160 H 1440 V 0 H 0 Z"
         id="path3727"
         inkscape:connector-curvature="0" /></clipPath></defs><sodipodi:namedview
     pagecolor="#ffffff"
     bordercolor="#666666"
     borderopacity="1"
     objecttolerance="10"
     gridtolerance="10"
     guidetolerance="10"
     inkscape:pageopacity="0"
     inkscape:pageshadow="2"
     inkscape:window-width="1920"
     inkscape:window-height="1017"
     id="namedview3715"
     showgrid="false"
     fit-margin-top="0"
     fit-margin-left="0"
     fit-margin-right="0"
     fit-margin-bottom="0"
     inkscape:zoom="0.29444444"
     inkscape:cx="581.54969"
     inkscape:cy="661.62655"
     inkscape:window-x="-8"
     inkscape:window-y="-8"
     inkscape:window-maximized="1"
     inkscape:current-layer="g3721" /><g
     id="g3721"
     inkscape:groupmode="layer"
     inkscape:label="Large"
     transform="matrix(1.3333333,0,0,-1.3333333,-21.846533,2653.3333)"><g
       id="g3723"><g
         id="g3725"
         clip-path="url(#clipPath3729)"><g
           id="g3731"
           transform="translate(457.9409,1990)"><path
             d="m 0,0 h -407.8 c -18.641,0 -33.756,-15.113 -33.756,-33.753 v -406.396 z"
             style="fill:#020101;fill-opacity:1;fill-rule:evenodd;stroke:none"
             id="path3733"
             inkscape:connector-curvature="0" /></g><g
           id="g3735"
           transform="translate(16.3853,617.5361)"><path
             d="M 0,0 C 0,-18.641 15.115,-33.756 33.756,-33.756 H 700.298 L 0,665.137 Z"
             style="fill:#020101;fill-opacity:1;fill-rule:evenodd;stroke:none"
             id="path3737"
             inkscape:connector-curvature="0" /></g><g
           id="g3739"
           transform="translate(1388.8564,1990)"><path
             d="m 0,0 h -665.142 l 109.688,-108.279 c 0,0 50.62,-77.34 -15.471,-132.186 -66.094,-54.841 -130.777,-7.031 -130.777,-7.031 0,0 -1.405,-1.405 -47.81,44.999 -46.407,46.406 -88.595,11.25 -88.595,11.25 0,0 -296.715,-298.118 -340.307,-340.303 -43.592,-42.187 -2.808,-75.938 -2.808,-75.938 0,0 551.236,-554.048 594.828,-599.046 43.588,-44.998 84.373,-4.221 84.373,-4.221 0,0 313.583,309.367 343.121,343.118 29.526,33.751 -4.223,78.747 -4.223,78.747 l -47.815,44.999 c 0,0 -63.272,70.313 5.63,137.808 68.904,67.501 137.808,8.437 137.808,8.437 L 33.746,-698.889 V -33.753 C 33.746,-15.113 18.639,0 0,0"
             style="fill:#020101;fill-opacity:1;fill-rule:evenodd;stroke:none"
             id="path3741"
             inkscape:connector-curvature="0" /></g><g
           id="g3743"
           transform="translate(1388.8564,583.7803)"><path
             d="M 0,0 C 18.639,0 33.746,15.115 33.746,33.756 V 442.96 L -409.211,0 Z"
             style="fill:#020101;fill-opacity:1;fill-rule:evenodd;stroke:none"
             id="path3745"
             inkscape:connector-curvature="0" /></g><g
           id="g3747"
           transform="translate(636.5283,1729.8506)"><path
             d="m 0,0 c 0,0 -43.591,28.123 -75.938,-4.222 -32.341,-32.342 -284.05,-284.054 -284.05,-284.054 0,0 -32.346,-33.75 -1.411,-67.499 30.943,-33.747 274.215,-275.617 274.215,-275.617 0,0 30.935,-37.97 74.529,5.623 43.59,43.595 205.307,205.308 205.307,205.308 0,0 36.565,43.592 74.53,5.625 37.967,-37.966 95.621,-95.624 95.621,-95.624 0,0 33.749,-36.559 -1.404,-71.714 l -140.624,-140.62 c 0,0 -36.561,-30.939 -73.119,4.215 -36.566,35.158 -35.164,36.564 -35.164,36.564 0,0 -36.553,35.153 -73.119,5.621 -36.557,-29.525 -14.06,-64.683 -14.06,-64.683 l 139.216,-142.028 c 0,0 40.779,-33.749 81.561,7.03 40.781,40.783 277.02,277.023 277.02,277.023 0,0 33.75,45.002 0,77.345 -33.743,32.34 -262.957,261.555 -262.957,261.555 0,0 -39.378,43.592 -80.16,2.814 -40.776,-40.781 -209.523,-209.529 -209.523,-209.529 0,0 -37.968,-33.75 -74.529,0 -36.566,33.752 -97.026,97.031 -97.026,97.031 0,0 -29.531,35.155 1.404,64.684 30.936,29.533 142.03,142.028 142.03,142.028 0,0 33.745,37.969 73.119,0 39.377,-37.966 37.97,-37.966 37.97,-37.966 0,0 35.153,-22.5 64.685,4.219 29.533,26.718 11.25,63.279 11.25,63.279 z"
             style="fill:#ffffff;fill-opacity:1;fill-rule:evenodd;stroke:none"
             id="path3749"
             inkscape:connector-curvature="0" /></g></g></g></g></svg>